<svg width="109" height="15" viewBox="0 0 109 15" fill="none" xmlns="http://www.w3.org/2000/svg">
<path d="M14.7656 7.375C14.7656 3.36133 11.5137 0.109375 7.5 0.109375C3.48633 0.109375 0.234375 3.36133 0.234375 7.375C0.234375 11.0078 2.87109 14.0254 6.35742 14.5527V9.48438H4.51172V7.375H6.35742V5.79297C6.35742 3.97656 7.44141 2.95117 9.08203 2.95117C9.90234 2.95117 10.7227 3.09766 10.7227 3.09766V4.88477H9.81445C8.90625 4.88477 8.61328 5.44141 8.61328 6.02734V7.375H10.6348L10.3125 9.48438H8.61328V14.5527C12.0996 14.0254 14.7656 11.0078 14.7656 7.375ZM39.1406 4.00586C37.2656 4.00586 35.7715 5.5293 35.7715 7.375C35.7715 9.25 37.2656 10.7441 39.1406 10.7441C40.9863 10.7441 42.5098 9.25 42.5098 7.375C42.5098 5.5293 40.9863 4.00586 39.1406 4.00586ZM39.1406 9.57227C37.9395 9.57227 36.9434 8.60547 36.9434 7.375C36.9434 6.17383 37.9102 5.20703 39.1406 5.20703C40.3418 5.20703 41.3086 6.17383 41.3086 7.375C41.3086 8.60547 40.3418 9.57227 39.1406 9.57227ZM43.418 3.88867C43.418 3.44922 43.0664 3.09766 42.627 3.09766C42.1875 3.09766 41.8359 3.44922 41.8359 3.88867C41.8359 4.32812 42.1875 4.67969 42.627 4.67969C43.0664 4.67969 43.418 4.32812 43.418 3.88867ZM45.6445 4.67969C45.5859 3.625 45.3516 2.6875 44.5898 1.92578C43.8281 1.16406 42.8906 0.929688 41.8359 0.871094C40.752 0.8125 37.5 0.8125 36.416 0.871094C35.3613 0.929688 34.4531 1.16406 33.6621 1.92578C32.9004 2.6875 32.666 3.625 32.6074 4.67969C32.5488 5.76367 32.5488 9.01562 32.6074 10.0996C32.666 11.1543 32.9004 12.0625 33.6621 12.8535C34.4531 13.6152 35.3613 13.8496 36.416 13.9082C37.5 13.9668 40.752 13.9668 41.8359 13.9082C42.8906 13.8496 43.8281 13.6152 44.5898 12.8535C45.3516 12.0625 45.5859 11.1543 45.6445 10.0996C45.7031 9.01562 45.7031 5.76367 45.6445 4.67969ZM44.2383 11.2422C44.0332 11.8281 43.5645 12.2676 43.0078 12.502C42.1289 12.8535 40.0781 12.7656 39.1406 12.7656C38.1738 12.7656 36.123 12.8535 35.2734 12.502C34.6875 12.2676 34.248 11.8281 34.0137 11.2422C33.6621 10.3926 33.75 8.3418 33.75 7.375C33.75 6.4375 33.6621 4.38672 34.0137 3.50781C34.248 2.95117 34.6875 2.51172 35.2734 2.27734C36.123 1.92578 38.1738 2.01367 39.1406 2.01367C40.0781 2.01367 42.1289 1.92578 43.0078 2.27734C43.5645 2.48242 44.0039 2.95117 44.2383 3.50781C44.5898 4.38672 44.502 6.4375 44.502 7.375C44.502 8.3418 44.5898 10.3926 44.2383 11.2422ZM76.7285 4.32812C77.3145 3.88867 77.8418 3.36133 78.252 2.74609C77.7246 2.98047 77.1094 3.15625 76.4941 3.21484C77.1387 2.83398 77.6074 2.24805 77.8418 1.51562C77.2559 1.86719 76.582 2.13086 75.9082 2.27734C75.3223 1.66211 74.5312 1.31055 73.6523 1.31055C71.9531 1.31055 70.5762 2.6875 70.5762 4.38672C70.5762 4.62109 70.6055 4.85547 70.6641 5.08984C68.1152 4.94336 65.8301 3.71289 64.3066 1.86719C64.043 2.30664 63.8965 2.83398 63.8965 3.41992C63.8965 4.47461 64.4238 5.41211 65.2734 5.96875C64.7754 5.93945 64.2773 5.82227 63.8672 5.58789V5.61719C63.8672 7.11133 64.9219 8.3418 66.3281 8.63477C66.0938 8.69336 65.8008 8.75195 65.5371 8.75195C65.332 8.75195 65.1562 8.72266 64.9512 8.69336C65.332 9.92383 66.4746 10.8027 67.8223 10.832C66.7676 11.6523 65.4492 12.1504 64.0137 12.1504C63.75 12.1504 63.5156 12.1211 63.2812 12.0918C64.6289 12.9707 66.2402 13.4688 67.998 13.4688C73.6523 13.4688 76.7285 8.81055 76.7285 4.73828C76.7285 4.5918 76.7285 4.47461 76.7285 4.32812ZM108.047 0.8125H96.7676C96.2695 0.8125 95.8594 1.25195 95.8594 1.7793V13C95.8594 13.5273 96.2695 13.9375 96.7676 13.9375H108.047C108.545 13.9375 108.984 13.5273 108.984 13V1.7793C108.984 1.25195 108.545 0.8125 108.047 0.8125ZM99.8145 12.0625H97.8809V5.82227H99.8145V12.0625ZM98.8477 4.94336C98.2031 4.94336 97.7051 4.44531 97.7051 3.83008C97.7051 3.21484 98.2031 2.6875 98.8477 2.6875C99.4629 2.6875 99.9609 3.21484 99.9609 3.83008C99.9609 4.44531 99.4629 4.94336 98.8477 4.94336ZM107.109 12.0625H105.146V9.01562C105.146 8.3125 105.146 7.375 104.15 7.375C103.125 7.375 102.979 8.16602 102.979 8.98633V12.0625H101.045V5.82227H102.891V6.67188H102.92C103.184 6.17383 103.828 5.64648 104.766 5.64648C106.729 5.64648 107.109 6.96484 107.109 8.63477V12.0625Z" fill="black"/>
</svg>
